<svg xmlns="http://www.w3.org/2000/svg" version="1.1" xmlns:xlink="http://www.w3.org/1999/xlink" xmlns:svgjs="http://svgjs.dev/svgjs" width="1440" height="560" preserveAspectRatio="none" viewBox="0 0 1440 560"><g mask="url(&quot;#SvgjsMask1006&quot;)" fill="none"><path d="M324.43 665.92C518.21 657.19 672.35 328.02 1022.83 327.91 1373.3 327.8 1538.3 543.78 1721.22 546.31" stroke="rgba(255, 255, 255, 1)" stroke-width="2"></path><path d="M611.77 602.11C730.08 594.89 794.88 387.02 1028.03 375.12 1261.18 363.22 1329.37 183.94 1444.29 179.12" stroke="rgba(255, 255, 255, 1)" stroke-width="2"></path><path d="M192.22 659.16C347.85 631.81 416.26 250.72 670.14 245.55 924.02 240.38 909.11 315.55 1148.07 315.55 1387.03 315.55 1505.23 245.74 1625.99 245.55" stroke="rgba(255, 255, 255, 1)" stroke-width="2"></path><path d="M676.32 578.97C780.05 578.36 860.3 492.82 1080.54 485.34 1300.77 477.86 1365.39 238.38 1484.75 227.74" stroke="rgba(255, 255, 255, 1)" stroke-width="2"></path><path d="M663.27 669.66C822.74 641.57 901.17 247.15 1152.81 245.54 1404.45 243.93 1511.08 432.63 1642.35 435.94" stroke="rgba(255, 255, 255, 1)" stroke-width="2"></path></g><defs><mask id="SvgjsMask1006"><rect width="1440" height="560" fill="#ffffff"></rect></mask></defs></svg>